<svg width="621" height="394" viewBox="0 0 621 394" fill="none" xmlns="http://www.w3.org/2000/svg">
<g clip-path="url(#clip0_788_609)">
<path d="M43.2107 36.0799C48.6207 36.0799 53.0064 31.6942 53.0064 26.2842C53.0064 20.8742 48.6207 16.4885 43.2107 16.4885C37.8007 16.4885 33.415 20.8742 33.415 26.2842C33.415 31.6942 37.8007 36.0799 43.2107 36.0799Z" fill="white"/>
<path d="M12.5479 30.0071L15.3466 31.8729V15.5873L12.5479 17.0166V30.0071Z" fill="white"/>
<path d="M69.5378 19.0745L66.8481 17.5818V11.502L69.5378 12.6514V19.0745Z" fill="white"/>
<path d="M65.9512 30.0809L63.1506 31.7109V15.6136L65.9512 17.1168V30.0809Z" fill="white"/>
<path d="M52.1853 22.3872C55.0685 28.7293 50.719 36.4708 43.6305 37.1379C33.5286 38.0972 27.9821 25.5521 35.5212 18.7277C40.8036 13.9451 49.4569 15.9747 52.187 22.3854L52.1853 22.3872ZM52.1853 22.3872C50.198 17.6856 44.2325 15.6966 39.8883 18.3035C33.8261 21.8063 34.2133 30.7888 40.4797 33.753C47.746 37.2242 55.4293 29.8893 52.187 22.3872H52.1853Z" fill="white"/>
<path d="M95.0722 7.66437L86.1988 26.8016H85.3152L76.4419 7.66437H78.8516L85.757 22.5594L92.6624 7.66437H95.0722Z" fill="white"/>
<path d="M98.2793 7.66437H100.46V26.8016H98.2793V7.66437Z" fill="white"/>
<path d="M111.349 15.318C113.294 15.8795 114.725 16.7543 115.643 17.9407C116.554 19.1359 116.839 20.5106 116.501 22.0632C116.17 23.6157 115.288 24.8426 113.852 25.7438C112.718 26.4479 111.479 26.8017 110.13 26.8017C109.944 26.8017 109.75 26.7929 109.555 26.7753C107.075 26.5694 105.116 25.4498 103.679 23.4168C104.089 22.989 104.603 22.4363 105.218 21.7569C105.672 22.5507 106.305 23.202 107.119 23.7107C107.93 24.2194 108.805 24.5134 109.741 24.5944C110.768 24.6841 111.722 24.4659 112.605 23.9378C113.568 23.3763 114.158 22.6 114.373 21.609C114.587 20.5828 114.35 19.708 113.663 18.9863C113.003 18.3086 112.026 17.7858 110.732 17.4197C110.509 17.3493 110.148 17.2595 109.648 17.1521C107.935 16.786 106.723 16.2597 106.008 15.5732C105.223 14.8233 104.79 13.9098 104.709 12.829C104.593 11.3293 105.151 10.0408 106.381 8.96178C107.559 7.92677 109.004 7.50783 110.717 7.70322C112.243 7.881 113.572 8.4742 114.705 9.48281L113.246 11.1163C112.479 10.4298 111.583 10.0197 110.556 9.8859C109.449 9.73452 108.539 9.97039 107.826 10.5953C107.14 11.2026 106.826 11.8926 106.89 12.6688C106.925 13.1863 107.135 13.6281 107.518 13.9943C107.928 14.3956 108.794 14.7389 110.115 15.024C110.659 15.1402 111.069 15.2388 111.347 15.318H111.349Z" fill="white"/>
<path d="M119.934 7.7959H122.115V26.9331H119.934V7.7959Z" fill="white"/>
<path d="M135.177 7.66437C137.817 7.66437 140.075 8.59729 141.948 10.4614C143.812 12.3343 144.745 14.5926 144.745 17.233C144.745 19.8733 143.812 22.1264 141.948 23.9905C140.075 25.8634 137.817 26.8016 135.177 26.8016C132.536 26.8016 130.283 25.8651 128.419 23.9905C126.546 22.1264 125.608 19.8733 125.608 17.233C125.608 14.5926 126.544 12.3343 128.419 10.4614C130.294 8.58849 132.536 7.66437 135.177 7.66437ZM135.177 24.6189C137.211 24.6189 138.95 23.8954 140.396 22.4503C141.841 21.0051 142.564 19.266 142.564 17.2312C142.564 15.1964 141.841 13.4573 140.396 12.0121C138.95 10.567 137.211 9.84353 135.177 9.84353C133.142 9.84353 131.403 10.567 129.957 12.0121C128.512 13.4573 127.789 15.1964 127.789 17.2312C127.789 19.266 128.512 21.0051 129.957 22.4503C131.403 23.8954 133.142 24.6189 135.177 24.6189Z" fill="white"/>
<path d="M161.626 7.66437V26.8016H160.835L150.13 13.0313V26.8016H147.949V7.66437H148.725L159.431 21.4223V7.66437H161.626Z" fill="white"/>
<path d="M84.2186 35.2905C84.5735 35.3942 84.8356 35.5525 85.0048 35.7709C85.1704 35.9893 85.2232 36.2404 85.1613 36.5243C85.1013 36.8082 84.9393 37.032 84.6772 37.1976C84.4698 37.3268 84.2441 37.3905 83.9966 37.3905C83.9621 37.3905 83.9275 37.3905 83.8911 37.3851C83.4379 37.3469 83.0794 37.143 82.8174 36.77C82.892 36.6917 82.9866 36.5898 83.0995 36.4661C83.1832 36.6117 83.2978 36.7299 83.447 36.8228C83.5963 36.9156 83.7564 36.9702 83.9275 36.9847C84.1149 37.0011 84.2896 36.9611 84.4516 36.8646C84.6281 36.7627 84.7355 36.6208 84.7737 36.4388C84.8137 36.2513 84.7701 36.0912 84.6445 35.9583C84.5244 35.8346 84.3442 35.7381 84.1076 35.6726C84.0676 35.6599 84.0003 35.6435 83.9093 35.6235C83.5963 35.5562 83.3743 35.4597 83.2432 35.3341C83.0995 35.1977 83.0212 35.0302 83.0067 34.8319C82.9848 34.5571 83.0867 34.3223 83.3124 34.124C83.5271 33.9347 83.7928 33.8583 84.1058 33.8947C84.3842 33.9274 84.6281 34.0366 84.8356 34.2204L84.568 34.5189C84.4279 34.3933 84.2641 34.3187 84.0767 34.2932C83.8747 34.2659 83.7073 34.3096 83.5781 34.4224C83.4525 34.5334 83.3961 34.659 83.407 34.8009C83.4143 34.8956 83.4525 34.9756 83.5217 35.043C83.5963 35.1158 83.7546 35.1795 83.9966 35.2322C84.0967 35.2541 84.1713 35.2723 84.2223 35.2868L84.2186 35.2905Z" fill="white"/>
<path d="M93.7663 33.8913V37.3908H93.3678V34.8376L91.9684 36.5009L90.5653 34.8376V37.3908H90.1667V33.8913H90.2923L91.9684 35.8804L93.6426 33.8913H93.7682H93.7663Z" fill="white"/>
<path d="M100.48 33.8913L102.103 37.3908H101.663L101.153 36.2898H99.6465L99.1369 37.3908H98.6965L100.32 33.8913H100.482H100.48ZM99.8303 35.8894H100.966L100.398 34.6665L99.8303 35.8894Z" fill="white"/>
<path d="M109.367 35.2394C109.367 35.5015 109.296 35.7435 109.156 35.9637C109.02 36.1784 108.836 36.3422 108.608 36.4532L109.267 37.3905H108.78L108.206 36.5788C108.143 36.5861 108.079 36.5915 108.017 36.5915H107.415V37.3923H107.016V33.8928H108.017C108.388 33.8928 108.707 34.0256 108.971 34.2895C109.233 34.5515 109.365 34.87 109.365 35.2413L109.367 35.2394ZM108.019 36.1912C108.279 36.1912 108.503 36.0984 108.689 35.9128C108.874 35.7271 108.967 35.5033 108.967 35.2394C108.967 34.9756 108.874 34.7554 108.689 34.5697C108.503 34.3841 108.279 34.2913 108.019 34.2913H107.416V36.193H108.019V36.1912Z" fill="white"/>
<path d="M116.649 33.8913V34.2898H115.576V37.3908H115.174V34.2898H114.1V33.8913H116.649Z" fill="white"/>
<path d="M129.827 33.8913V37.3908H129.425V36.2898H127.723V37.3908H127.325V33.8913H127.723V35.8913H129.425V33.8913H129.827Z" fill="white"/>
<path d="M136.496 33.8913C136.979 33.8913 137.392 34.0624 137.734 34.4027C138.074 34.7448 138.245 35.1579 138.245 35.6401C138.245 36.1224 138.074 36.5355 137.734 36.8758C137.394 37.2161 136.979 37.389 136.496 37.389C136.014 37.389 135.601 37.2179 135.261 36.8758C134.919 36.5355 134.748 36.1224 134.748 35.6401C134.748 35.1579 134.919 34.7448 135.261 34.4027C135.603 34.0605 136.014 33.8913 136.496 33.8913ZM136.496 36.9923C136.868 36.9923 137.186 36.8594 137.452 36.5955C137.717 36.3317 137.849 36.0132 137.849 35.642C137.849 35.2707 137.716 34.9522 137.452 34.6866C137.188 34.4227 136.869 34.2898 136.496 34.2898C136.123 34.2898 135.807 34.4227 135.541 34.6866C135.275 34.9504 135.144 35.2689 135.144 35.642C135.144 36.015 135.277 36.3317 135.541 36.5955C135.805 36.8594 136.123 36.9923 136.496 36.9923Z" fill="white"/>
<path d="M146.776 33.8913V37.3908H146.378V34.8376L144.978 36.5009L143.575 34.8376V37.3908H143.177V33.8913H143.302L144.978 35.8804L146.653 33.8913H146.778H146.776Z" fill="white"/>
<path d="M154.098 33.8912V34.2897H152.096V35.8893H152.997V36.2879H152.096V36.9903H154.198V37.3888H151.698V33.8893H154.098V33.8912Z" fill="white"/>
<path d="M160.521 35.2905C160.878 35.3942 161.138 35.5525 161.307 35.7709C161.473 35.9893 161.526 36.2404 161.464 36.5243C161.404 36.8082 161.242 37.032 160.98 37.1976C160.772 37.3268 160.545 37.3905 160.299 37.3905C160.265 37.3905 160.23 37.3905 160.194 37.3851C159.74 37.3469 159.382 37.143 159.12 36.77C159.194 36.6917 159.289 36.5898 159.402 36.4661C159.486 36.6117 159.6 36.7299 159.75 36.8228C159.899 36.9156 160.057 36.9702 160.23 36.9847C160.417 37.0011 160.592 36.9611 160.754 36.8646C160.931 36.7627 161.038 36.6208 161.078 36.4388C161.116 36.2513 161.074 36.0912 160.949 35.9583C160.829 35.8346 160.649 35.7381 160.412 35.6726C160.372 35.6599 160.305 35.6435 160.214 35.6235C159.901 35.5562 159.679 35.4597 159.548 35.3341C159.404 35.1977 159.326 35.0302 159.311 34.8319C159.289 34.5571 159.391 34.3223 159.617 34.124C159.831 33.9347 160.097 33.8583 160.41 33.8947C160.689 33.9274 160.932 34.0366 161.14 34.2204L160.872 34.5189C160.732 34.3933 160.568 34.3187 160.381 34.2932C160.179 34.2659 160.012 34.3096 159.882 34.4224C159.757 34.5334 159.7 34.659 159.711 34.8009C159.719 34.8956 159.757 34.9756 159.826 35.043C159.901 35.1158 160.059 35.1795 160.301 35.2322C160.401 35.2541 160.476 35.2723 160.527 35.2868L160.521 35.2905Z" fill="white"/>
<path d="M3.67017 21.7252L39.0965 1.23969L74.8327 21.7252L39.2514 4.54539L3.67017 21.7252Z" fill="white"/>
<path d="M74.8327 25.5344L39.4046 46.0217L3.67017 25.5344L39.2514 42.716L74.8327 25.5344Z" fill="white"/>
<path d="M16.9926 26.2845C16.9926 26.2845 40.1589 0.460151 68.6324 25.0717C68.6324 25.0717 44.9573 -4.83813 10.397 26.2845H16.9926Z" fill="white"/>
<path d="M3.67017 21.7252L42.3019 3.07561L39.0965 1.23969L3.67017 21.7252Z" fill="white"/>
<path d="M74.8299 25.5344L39.4018 46.0217L36.2246 44.1998L74.8299 25.5344Z" fill="white"/>
<path d="M13.5911 26.2843C13.5911 26.2843 40.468 -0.948182 68.6352 25.0715C68.6352 25.0715 41.892 1.44397 16.9953 26.2843H13.5911Z" fill="white"/>
</g>
<path d="M184.5 22.9999L620.5 23V393H15" stroke="white"/>
<defs>
<clipPath id="clip0_788_609">
<rect width="163.949" height="45.6881" fill="white" transform="translate(0 0.656006)"/>
</clipPath>
</defs>
</svg>
