<svg xmlns="http://www.w3.org/2000/svg" width="164" height="47" viewBox="0 0 164 47" fill="none">
  <g clip-path="url(#clip0_1626_448)">
    <path d="M43.2097 36.0799C48.6197 36.0799 53.0054 31.6942 53.0054 26.2842C53.0054 20.8742 48.6197 16.4885 43.2097 16.4885C37.7997 16.4885 33.4141 20.8742 33.4141 26.2842C33.4141 31.6942 37.7997 36.0799 43.2097 36.0799Z" fill="white"/>
    <path d="M12.5469 30.0072L15.3456 31.873V15.5874L12.5469 17.0167V30.0072Z" fill="white"/>
    <path d="M69.5373 19.0745L66.8477 17.5818V11.502L69.5373 12.6514V19.0745Z" fill="white"/>
    <path d="M65.9529 30.0808L63.1523 31.7108V15.6135L65.9529 17.1168V30.0808Z" fill="white"/>
    <path d="M52.1848 22.3873C55.068 28.7294 50.7185 36.4709 43.63 37.138C33.5281 38.0973 27.9816 25.5522 35.5207 18.7277C40.8031 13.9452 49.4564 15.9748 52.1865 22.3855L52.1848 22.3873ZM52.1848 22.3873C50.1975 17.6857 44.232 15.6966 39.8878 18.3035C33.8256 21.8064 34.2128 30.7888 40.4792 33.7531C47.7455 37.2242 55.4289 29.8894 52.1865 22.3873H52.1848Z" fill="white"/>
    <path d="M95.0756 7.66431L86.2023 26.8015H85.3186L76.4453 7.66431H78.8551L85.7604 22.5594L92.6658 7.66431H95.0756Z" fill="white"/>
    <path d="M98.2812 7.66431H100.462V26.8015H98.2812V7.66431Z" fill="white"/>
    <path d="M111.349 15.3178C113.294 15.8794 114.725 16.7542 115.644 17.9406C116.554 19.1358 116.839 20.5105 116.501 22.063C116.17 23.6156 115.288 24.8424 113.852 25.7437C112.718 26.4478 111.479 26.8016 110.131 26.8016C109.944 26.8016 109.751 26.7928 109.555 26.7752C107.075 26.5692 105.116 25.4497 103.68 23.4167C104.09 22.9889 104.604 22.4362 105.218 21.7568C105.672 22.5506 106.306 23.2019 107.119 23.7106C107.931 24.2193 108.805 24.5133 109.742 24.5943C110.768 24.684 111.722 24.4658 112.606 23.9377C113.569 23.3762 114.158 22.5999 114.373 21.6089C114.588 20.5827 114.35 19.7079 113.664 18.9862C113.004 18.3085 112.027 17.7857 110.733 17.4196C110.509 17.3491 110.149 17.2594 109.649 17.152C107.936 16.7859 106.723 16.2596 106.008 15.5731C105.223 14.8232 104.79 13.9097 104.709 12.8289C104.593 11.3292 105.151 10.0407 106.382 8.96166C107.559 7.92665 109.004 7.50771 110.717 7.70309C112.243 7.88088 113.572 8.47408 114.706 9.48269L113.247 11.1162C112.479 10.4297 111.583 10.0196 110.557 9.88578C109.45 9.7344 108.54 9.97027 107.827 10.5952C107.14 11.2024 106.827 11.8924 106.89 12.6687C106.926 13.1862 107.135 13.628 107.519 13.9942C107.929 14.3955 108.795 14.7387 110.115 15.0239C110.659 15.1401 111.069 15.2386 111.347 15.3178H111.349Z" fill="white"/>
    <path d="M119.934 7.7959H122.115V26.9331H119.934V7.7959Z" fill="white"/>
    <path d="M135.178 7.66431C137.818 7.66431 140.077 8.59723 141.95 10.4613C143.814 12.3342 144.747 14.5926 144.747 17.2329C144.747 19.8733 143.814 22.1264 141.95 23.9904C140.077 25.8633 137.818 26.8015 135.178 26.8015C132.538 26.8015 130.285 25.8651 128.42 23.9904C126.548 22.1264 125.609 19.8733 125.609 17.2329C125.609 14.5926 126.546 12.3342 128.42 10.4613C130.295 8.58843 132.538 7.66431 135.178 7.66431ZM135.178 24.6188C137.213 24.6188 138.952 23.8954 140.397 22.4502C141.842 21.0051 142.566 19.266 142.566 17.2312C142.566 15.1963 141.842 13.4572 140.397 12.0121C138.952 10.5669 137.213 9.84347 135.178 9.84347C133.143 9.84347 131.404 10.5669 129.959 12.0121C128.514 13.4572 127.79 15.1963 127.79 17.2312C127.79 19.266 128.514 21.0051 129.959 22.4502C131.404 23.8954 133.143 24.6188 135.178 24.6188Z" fill="white"/>
    <path d="M161.626 7.66431V26.8015H160.836L150.13 13.0312V26.8015H147.949V7.66431H148.725L159.431 21.4223V7.66431H161.626Z" fill="white"/>
    <path d="M84.2216 35.2904C84.5764 35.3941 84.8385 35.5524 85.0077 35.7708C85.1733 35.9892 85.2261 36.2403 85.1642 36.5242C85.1042 36.8081 84.9422 37.0319 84.6802 37.1975C84.4727 37.3267 84.2471 37.3904 83.9996 37.3904C83.965 37.3904 83.9304 37.3904 83.894 37.385C83.4409 37.3467 83.0824 37.1429 82.8203 36.7699C82.8949 36.6916 82.9896 36.5897 83.1024 36.4659C83.1861 36.6115 83.3007 36.7298 83.45 36.8226C83.5992 36.9154 83.7593 36.97 83.9304 36.9846C84.1178 37.001 84.2926 36.9609 84.4545 36.8645C84.631 36.7626 84.7384 36.6206 84.7766 36.4387C84.8166 36.2512 84.773 36.0911 84.6474 35.9582C84.5273 35.8345 84.3471 35.738 84.1106 35.6725C84.0705 35.6598 84.0032 35.6434 83.9122 35.6234C83.5992 35.556 83.3772 35.4596 83.2462 35.334C83.1024 35.1975 83.0241 35.0301 83.0096 34.8318C82.9877 34.557 83.0897 34.3222 83.3153 34.1238C83.53 33.9346 83.7957 33.8582 84.1087 33.8945C84.3872 33.9273 84.631 34.0365 84.8385 34.2203L84.571 34.5187C84.4308 34.3932 84.2671 34.3186 84.0796 34.2931C83.8776 34.2658 83.7102 34.3095 83.581 34.4223C83.4554 34.5333 83.399 34.6589 83.4099 34.8008C83.4172 34.8955 83.4554 34.9755 83.5246 35.0429C83.5992 35.1156 83.7575 35.1793 83.9996 35.2321C84.0996 35.254 84.1743 35.2722 84.2252 35.2867L84.2216 35.2904Z" fill="white"/>
    <path d="M93.7676 33.8914V37.3909H93.369V34.8377L91.9696 36.501L90.5665 34.8377V37.3909H90.168V33.8914H90.2935L91.9696 35.8804L93.6438 33.8914H93.7694H93.7676Z" fill="white"/>
    <path d="M100.483 33.8914L102.106 37.3909H101.666L101.156 36.2899H99.6492L99.1396 37.3909H98.6992L100.322 33.8914H100.484H100.483ZM99.833 35.8895H100.969L100.401 34.6666L99.833 35.8895Z" fill="white"/>
    <path d="M109.367 35.2392C109.367 35.5013 109.296 35.7433 109.156 35.9635C109.019 36.1783 108.835 36.3421 108.608 36.4531L109.267 37.3903H108.779L108.206 36.5786C108.142 36.5859 108.078 36.5914 108.017 36.5914H107.414V37.3921H107.016V33.8926H108.017C108.388 33.8926 108.706 34.0254 108.97 34.2893C109.232 34.5514 109.365 34.8698 109.365 35.2411L109.367 35.2392ZM108.018 36.191C108.279 36.191 108.502 36.0982 108.688 35.9126C108.874 35.727 108.966 35.5031 108.966 35.2392C108.966 34.9754 108.874 34.7552 108.688 34.5696C108.502 34.3839 108.279 34.2911 108.018 34.2911H107.416V36.1928H108.018V36.191Z" fill="white"/>
    <path d="M116.651 33.8914V34.2899H115.577V37.3909H115.175V34.2899H114.102V33.8914H116.651Z" fill="white"/>
    <path d="M129.83 33.8914V37.3909H129.428V36.2899H127.727V37.3909H127.328V33.8914H127.727V35.8913H129.428V33.8914H129.83Z" fill="white"/>
    <path d="M136.499 33.8914C136.981 33.8914 137.394 34.0624 137.736 34.4027C138.077 34.7449 138.248 35.1579 138.248 35.6402C138.248 36.1224 138.077 36.5355 137.736 36.8758C137.396 37.2162 136.981 37.389 136.499 37.389C136.017 37.389 135.603 37.218 135.263 36.8758C134.921 36.5355 134.75 36.1224 134.75 35.6402C134.75 35.1579 134.921 34.7449 135.263 34.4027C135.605 34.0606 136.017 33.8914 136.499 33.8914ZM136.499 36.9923C136.87 36.9923 137.189 36.8595 137.454 36.5956C137.72 36.3317 137.851 36.0133 137.851 35.642C137.851 35.2708 137.718 34.9523 137.454 34.6866C137.19 34.4227 136.872 34.2899 136.499 34.2899C136.126 34.2899 135.809 34.4227 135.543 34.6866C135.278 34.9505 135.147 35.269 135.147 35.642C135.147 36.0151 135.28 36.3317 135.543 36.5956C135.807 36.8595 136.126 36.9923 136.499 36.9923Z" fill="white"/>
    <path d="M146.779 33.8914V37.3909H146.381V34.8377L144.981 36.501L143.578 34.8377V37.3909H143.18V33.8914H143.305L144.981 35.8804L146.656 33.8914H146.781H146.779Z" fill="white"/>
    <path d="M154.1 33.891V34.2895H152.098V35.8891H152.999V36.2877H152.098V36.9901H154.2V37.3887H151.699V33.8892H154.1V33.891Z" fill="white"/>
    <path d="M160.522 35.2904C160.879 35.3941 161.139 35.5524 161.309 35.7708C161.474 35.9892 161.527 36.2403 161.465 36.5242C161.405 36.8081 161.243 37.0319 160.981 37.1975C160.773 37.3267 160.546 37.3904 160.3 37.3904C160.266 37.3904 160.231 37.3904 160.195 37.385C159.742 37.3467 159.383 37.1429 159.121 36.7699C159.196 36.6916 159.29 36.5897 159.403 36.4659C159.487 36.6115 159.602 36.7298 159.751 36.8226C159.9 36.9154 160.058 36.97 160.231 36.9846C160.419 37.001 160.593 36.9609 160.755 36.8645C160.932 36.7626 161.039 36.6206 161.079 36.4387C161.117 36.2512 161.076 36.0911 160.95 35.9582C160.83 35.8345 160.65 35.738 160.413 35.6725C160.373 35.6598 160.306 35.6434 160.215 35.6234C159.902 35.556 159.68 35.4596 159.549 35.334C159.405 35.1975 159.327 35.0301 159.312 34.8318C159.29 34.557 159.392 34.3222 159.618 34.1238C159.833 33.9346 160.098 33.8582 160.411 33.8945C160.69 33.9273 160.934 34.0365 161.141 34.2203L160.874 34.5187C160.733 34.3932 160.57 34.3186 160.382 34.2931C160.18 34.2658 160.013 34.3095 159.884 34.4223C159.758 34.5333 159.702 34.6589 159.713 34.8008C159.72 34.8955 159.758 34.9755 159.827 35.0429C159.902 35.1156 160.06 35.1793 160.302 35.2321C160.402 35.254 160.477 35.2722 160.528 35.2867L160.522 35.2904Z" fill="white"/>
    <path d="M3.67188 21.7253L39.0982 1.23975L74.8344 21.7253L39.2531 4.54546L3.67188 21.7253Z" fill="white"/>
    <path d="M74.8344 25.5344L39.4063 46.0217L3.67188 25.5344L39.2531 42.716L74.8344 25.5344Z" fill="white"/>
    <path d="M16.994 26.2845C16.994 26.2845 40.1604 0.460151 68.6338 25.0717C68.6338 25.0717 44.9588 -4.83813 10.3984 26.2845H16.994Z" fill="white"/>
    <path d="M3.67188 21.7253L42.3036 3.07567L39.0982 1.23975L3.67188 21.7253Z" fill="white"/>
    <path d="M74.8319 25.5344L39.4038 46.0217L36.2266 44.1999L74.8319 25.5344Z" fill="white"/>
    <path d="M13.5898 26.2843C13.5898 26.2843 40.4668 -0.948181 68.634 25.0715C68.634 25.0715 41.8908 1.44397 16.9941 26.2843H13.5898Z" fill="white"/>
  </g>
  <defs>
    <clipPath id="clip0_1626_448">
      <rect width="163.949" height="45.6881" fill="white" transform="translate(0 0.656006)"/>
    </clipPath>
  </defs>
</svg>