<svg width="230" height="64" viewBox="0 0 230 64" fill="none" xmlns="http://www.w3.org/2000/svg">
<g id="Logo">
<path id="Vector" d="M60.5235 49.622C68.1019 49.622 74.2453 43.4786 74.2453 35.9003C74.2453 28.3219 68.1019 22.1785 60.5235 22.1785C52.9452 22.1785 46.8018 28.3219 46.8018 35.9003C46.8018 43.4786 52.9452 49.622 60.5235 49.622Z" fill="#E7AE3D"/>
<path id="Vector_2" d="M17.5781 41.1153L21.4986 43.7289V20.916L17.5781 22.9182V41.1153Z" fill="#BD8C2B"/>
<path id="Vector_3" d="M97.42 25.8007L93.6523 23.7097V15.1931L97.42 16.8032V25.8007Z" fill="#8E8E8E"/>
<path id="Vector_4" d="M92.3839 41.2187L88.4609 43.502V20.9529L92.3839 23.0586V41.2187Z" fill="#E7AE3D"/>
<path id="Vector_5" d="M73.0916 30.441C77.1305 39.325 71.0377 50.1693 61.1082 51.1038C46.9573 52.4477 39.1878 34.8744 49.7485 25.3148C57.1482 18.6154 69.2697 21.4584 73.0941 30.4385L73.0916 30.441ZM73.0916 30.441C70.3078 23.855 61.9514 21.0688 55.866 24.7205C47.374 29.6273 47.9165 42.2099 56.6945 46.3622C66.873 51.2246 77.6359 40.9499 73.0941 30.441H73.0916Z" fill="#BD8C2B"/>
<g id="Group">
<path id="Vector_6" d="M133.168 9.81738L120.738 36.6248H119.5L107.07 9.81738H110.446L120.119 30.6824L129.792 9.81738H133.168Z" fill="#53473D"/>
<path id="Vector_7" d="M137.668 9.81738H140.723V36.6248H137.668V9.81738Z" fill="#53473D"/>
<path id="Vector_8" d="M155.964 20.5384C158.689 21.325 160.693 22.5505 161.98 24.2124C163.255 25.8866 163.655 27.8123 163.181 29.9871C162.718 32.1619 161.482 33.8805 159.47 35.1429C157.882 36.1292 156.146 36.6248 154.258 36.6248C153.996 36.6248 153.725 36.6125 153.451 36.5879C149.977 36.2994 147.233 34.7312 145.221 31.8832C145.795 31.2841 146.515 30.5098 147.376 29.5581C148.012 30.6701 148.9 31.5824 150.039 32.295C151.175 33.0076 152.401 33.4194 153.713 33.5328C155.15 33.6586 156.487 33.3528 157.724 32.6131C159.073 31.8265 159.899 30.7391 160.2 29.3509C160.501 27.9134 160.168 26.688 159.206 25.677C158.282 24.7277 156.913 23.9954 155.101 23.4825C154.788 23.3839 154.282 23.2581 153.582 23.1077C151.183 22.5948 149.484 21.8576 148.483 20.896C147.383 19.8456 146.777 18.5658 146.663 17.0519C146.5 14.9511 147.282 13.1462 149.006 11.6347C150.655 10.1848 152.68 9.59798 155.079 9.87167C157.216 10.1207 159.078 10.9517 160.666 12.3645L158.622 14.6527C157.547 13.6911 156.292 13.1166 154.854 12.9292C153.303 12.7171 152.029 13.0475 151.03 13.9229C150.068 14.7736 149.629 15.7401 149.718 16.8275C149.768 17.5524 150.061 18.1713 150.598 18.6842C151.173 19.2464 152.386 19.7272 154.235 20.1267C154.997 20.2894 155.572 20.4275 155.961 20.5384H155.964Z" fill="#53473D"/>
<path id="Vector_9" d="M168.391 9.81738H171.446V36.6248H168.391V9.81738Z" fill="#53473D"/>
<path id="Vector_10" d="M189.349 9.81738C193.048 9.81738 196.211 11.1242 198.835 13.7354C201.446 16.359 202.753 19.5225 202.753 23.2211C202.753 26.9197 201.446 30.0758 198.835 32.687C196.211 35.3106 193.048 36.6248 189.349 36.6248C185.65 36.6248 182.494 35.313 179.883 32.687C177.26 30.0758 175.945 26.9197 175.945 23.2211C175.945 19.5225 177.257 16.359 179.883 13.7354C182.509 11.1119 185.65 9.81738 189.349 9.81738ZM189.349 33.5673C192.199 33.5673 194.636 32.5539 196.66 30.5295C198.684 28.5052 199.698 26.069 199.698 23.2186C199.698 20.3682 198.684 17.9321 196.66 15.9077C194.636 13.8834 192.199 12.87 189.349 12.87C186.499 12.87 184.063 13.8834 182.038 15.9077C180.014 17.9321 179 20.3682 179 23.2186C179 26.069 180.014 28.5052 182.038 30.5295C184.063 32.5539 186.499 33.5673 189.349 33.5673Z" fill="#53473D"/>
<path id="Vector_11" d="M226.411 9.81738V36.6248H225.304L210.307 17.3354V36.6248H207.252V9.81738H208.339L223.336 29.0895V9.81738H226.411Z" fill="#53473D"/>
</g>
<g id="Group_2">
<path id="Vector_12" d="M117.971 48.5162C118.468 48.6615 118.835 48.8832 119.072 49.1891C119.304 49.495 119.378 49.8468 119.291 50.2445C119.207 50.6422 118.98 50.9557 118.613 51.1877C118.322 51.3687 118.006 51.4579 117.66 51.4579C117.611 51.4579 117.563 51.4579 117.512 51.4503C116.877 51.3967 116.375 51.1112 116.008 50.5886C116.112 50.479 116.245 50.3363 116.403 50.1629C116.52 50.3669 116.681 50.5326 116.89 50.6626C117.099 50.7926 117.323 50.8691 117.563 50.8895C117.825 50.9124 118.07 50.8563 118.297 50.7212C118.544 50.5785 118.695 50.3796 118.748 50.1247C118.804 49.8621 118.743 49.6378 118.567 49.4517C118.399 49.2784 118.147 49.1433 117.815 49.0515C117.759 49.0336 117.665 49.0107 117.537 48.9827C117.099 48.8883 116.788 48.7532 116.604 48.5773C116.403 48.3862 116.293 48.1516 116.273 47.8738C116.242 47.4888 116.385 47.16 116.701 46.8821C117.002 46.617 117.374 46.5099 117.813 46.5609C118.203 46.6068 118.544 46.7598 118.835 47.0172L118.46 47.4353C118.264 47.2594 118.034 47.1549 117.772 47.1192C117.489 47.081 117.254 47.1421 117.073 47.3002C116.897 47.4557 116.818 47.6316 116.834 47.8304C116.844 47.963 116.897 48.0751 116.994 48.1695C117.099 48.2714 117.321 48.3607 117.66 48.4346C117.8 48.4652 117.904 48.4907 117.976 48.5111L117.971 48.5162Z" fill="#8B5E3B"/>
<path id="Vector_13" d="M131.359 46.5559V51.458H130.8V47.8815L128.84 50.2114L126.875 47.8815V51.458H126.316V46.5559H126.492L128.84 49.3422L131.185 46.5559H131.361H131.359Z" fill="#8B5E3B"/>
<path id="Vector_14" d="M140.756 46.5559L143.03 51.458H142.413L141.699 49.9157H139.588L138.875 51.458H138.258L140.532 46.5559H140.759H140.756ZM139.846 49.3549H141.437L140.641 47.6419L139.846 49.3549Z" fill="#8B5E3B"/>
<path id="Vector_15" d="M153.213 48.4448C153.213 48.8118 153.114 49.1509 152.918 49.4593C152.727 49.7601 152.469 49.9896 152.15 50.1451L153.073 51.4579H152.39L151.587 50.321C151.498 50.3312 151.409 50.3388 151.322 50.3388H150.478V51.4605H149.92V46.5583H151.322C151.842 46.5583 152.288 46.7445 152.658 47.1141C153.025 47.4812 153.211 47.9273 153.211 48.4473L153.213 48.4448ZM151.325 49.778C151.689 49.778 152.003 49.648 152.263 49.388C152.523 49.128 152.653 48.8144 152.653 48.4448C152.653 48.0751 152.523 47.7667 152.263 47.5067C152.003 47.2466 151.689 47.1166 151.325 47.1166H150.481V49.7805H151.325V49.778Z" fill="#8B5E3B"/>
<path id="Vector_16" d="M163.409 46.5559V47.1142H161.905V51.458H161.342V47.1142H159.838V46.5559H163.409Z" fill="#8B5E3B"/>
<path id="Vector_17" d="M181.859 46.5559V51.458H181.295V49.9157H178.912V51.458H178.354V46.5559H178.912V49.3575H181.295V46.5559H181.859Z" fill="#8B5E3B"/>
<path id="Vector_18" d="M191.208 46.5559C191.883 46.5559 192.462 46.7955 192.941 47.2722C193.418 47.7515 193.657 48.3301 193.657 49.0057C193.657 49.6812 193.418 50.2599 192.941 50.7366C192.464 51.2133 191.883 51.4555 191.208 51.4555C190.532 51.4555 189.953 51.2158 189.477 50.7366C188.997 50.2599 188.758 49.6812 188.758 49.0057C188.758 48.3301 188.997 47.7515 189.477 47.2722C189.956 46.793 190.532 46.5559 191.208 46.5559ZM191.208 50.8997C191.728 50.8997 192.174 50.7136 192.546 50.344C192.918 49.9744 193.102 49.5283 193.102 49.0082C193.102 48.4882 192.916 48.0421 192.546 47.6699C192.176 47.3003 191.73 47.1142 191.208 47.1142C190.685 47.1142 190.241 47.3003 189.869 47.6699C189.497 48.0395 189.314 48.4857 189.314 49.0082C189.314 49.5308 189.5 49.9744 189.869 50.344C190.239 50.7136 190.685 50.8997 191.208 50.8997Z" fill="#8B5E3B"/>
<path id="Vector_19" d="M205.597 46.5559V51.458H205.039V47.8815L203.078 50.2114L201.113 47.8815V51.458H200.555V46.5559H200.731L203.078 49.3422L205.424 46.5559H205.6H205.597Z" fill="#8B5E3B"/>
<path id="Vector_20" d="M215.857 46.5558V47.114H213.052V49.3548H214.314V49.9131H213.052V50.8971H215.997V51.4553H212.494V46.5532H215.857V46.5558Z" fill="#8B5E3B"/>
<path id="Vector_21" d="M224.855 48.5162C225.355 48.6615 225.72 48.8832 225.957 49.1891C226.189 49.495 226.263 49.8468 226.176 50.2445C226.092 50.6422 225.865 50.9557 225.498 51.1877C225.207 51.3687 224.889 51.4579 224.544 51.4579C224.496 51.4579 224.448 51.4579 224.397 51.4503C223.762 51.3967 223.26 51.1112 222.893 50.5886C222.997 50.479 223.13 50.3363 223.288 50.1629C223.405 50.3669 223.566 50.5326 223.775 50.6626C223.984 50.7926 224.205 50.8691 224.448 50.8895C224.71 50.9124 224.955 50.8563 225.182 50.7212C225.429 50.5785 225.579 50.3796 225.636 50.1247C225.689 49.8621 225.63 49.6378 225.455 49.4517C225.286 49.2784 225.034 49.1433 224.703 49.0515C224.646 49.0336 224.552 49.0107 224.425 48.9827C223.986 48.8883 223.675 48.7532 223.492 48.5773C223.29 48.3862 223.181 48.1516 223.16 47.8738C223.13 47.4888 223.272 47.16 223.589 46.8821C223.889 46.617 224.261 46.5099 224.7 46.5609C225.09 46.6068 225.432 46.7598 225.722 47.0172L225.347 47.4353C225.151 47.2594 224.922 47.1549 224.659 47.1192C224.376 47.081 224.142 47.1421 223.961 47.3002C223.785 47.4557 223.706 47.6316 223.721 47.8304C223.731 47.963 223.785 48.0751 223.882 48.1695C223.986 48.2714 224.208 48.3607 224.547 48.4346C224.687 48.4652 224.792 48.4907 224.863 48.5111L224.855 48.5162Z" fill="#8B5E3B"/>
</g>
<path id="Vector_22" d="M5.13867 29.514L54.764 0.817871L104.823 29.514L54.9809 5.44851L5.13867 29.514Z" fill="#BD8C2B"/>
<path id="Vector_23" d="M104.823 34.8499L55.1955 63.5485L5.13867 34.8499L54.9809 58.9179L104.823 34.8499Z" fill="#565656"/>
<path id="Vector_24" d="M23.8065 35.9002C23.8065 35.9002 56.2579 -0.274513 96.1436 34.2013C96.1436 34.2013 62.9795 -7.69635 14.5674 35.9002H23.8065Z" fill="#565656"/>
<path id="Vector_25" d="M5.13867 29.514L59.254 3.38963L54.764 0.817871L5.13867 29.514Z" fill="#E7AE3D"/>
<path id="Vector_26" d="M104.823 34.8499L55.1948 63.5485L50.7441 60.9965L104.823 34.8499Z" fill="#8E8E8E"/>
<path id="Vector_27" d="M19.0381 35.9001C19.0381 35.9001 56.6873 -2.24724 96.1439 34.2012C96.1439 34.2012 58.6821 1.1037 23.8068 35.9001H19.0381Z" fill="#8E8E8E"/>
</g>
</svg>
