<svg width="230" height="64" viewBox="0 0 230 64" fill="none" xmlns="http://www.w3.org/2000/svg">
<g id="Logo">
<path id="Vector" d="M60.5234 49.622C68.1017 49.622 74.2452 43.4786 74.2452 35.9003C74.2452 28.3219 68.1017 22.1785 60.5234 22.1785C52.945 22.1785 46.8016 28.3219 46.8016 35.9003C46.8016 43.4786 52.945 49.622 60.5234 49.622Z" fill="#E7AE3D"/>
<path id="Vector_2" d="M17.5781 41.1153L21.4986 43.7289V20.916L17.5781 22.9182V41.1153Z" fill="#BD8C2B"/>
<path id="Vector_3" d="M97.4209 25.8007L93.6533 23.7097V15.1931L97.4209 16.8032V25.8007Z" fill="#8E8E8E"/>
<path id="Vector_4" d="M92.3829 41.2187L88.46 43.502V20.9529L92.3829 23.0586V41.2187Z" fill="#E7AE3D"/>
<path id="Vector_5" d="M73.0914 30.441C77.1303 39.325 71.0375 50.1693 61.108 51.1038C46.9572 52.4477 39.1876 34.8744 49.7484 25.3148C57.148 18.6154 69.2695 21.4584 73.0939 30.4385L73.0914 30.441ZM73.0914 30.441C70.3076 23.855 61.9513 21.0688 55.8658 24.7205C47.3739 29.6273 47.9163 42.2099 56.6943 46.3622C66.8729 51.2246 77.6358 40.9499 73.0939 30.441H73.0914Z" fill="#BD8C2B"/>
<g id="Group">
<path id="Vector_6" d="M133.167 9.81738L120.738 36.6248H119.5L107.07 9.81738H110.446L120.119 30.6824L129.792 9.81738H133.167Z" fill="white"/>
<path id="Vector_7" d="M137.667 9.81738H140.723V36.6248H137.667V9.81738Z" fill="white"/>
<path id="Vector_8" d="M155.963 20.5384C158.688 21.325 160.693 22.5505 161.98 24.2124C163.255 25.8866 163.654 27.8123 163.181 29.9871C162.717 32.1619 161.482 33.8805 159.47 35.1429C157.882 36.1292 156.146 36.6248 154.257 36.6248C153.996 36.6248 153.725 36.6125 153.451 36.5879C149.977 36.2994 147.232 34.7312 145.22 31.8832C145.795 31.2841 146.515 30.5098 147.375 29.5581C148.011 30.6701 148.899 31.5824 150.038 32.295C151.175 33.0076 152.4 33.4194 153.712 33.5328C155.15 33.6586 156.486 33.3528 157.724 32.6131C159.073 31.8265 159.899 30.7391 160.2 29.3509C160.5 27.9134 160.167 26.688 159.206 25.677C158.281 24.7277 156.913 23.9954 155.1 23.4825C154.787 23.3839 154.282 23.2581 153.581 23.1077C151.182 22.5948 149.483 21.8576 148.482 20.896C147.383 19.8456 146.776 18.5658 146.663 17.0519C146.5 14.9511 147.282 13.1462 149.005 11.6347C150.655 10.1848 152.679 9.59798 155.078 9.87167C157.216 10.1207 159.078 10.9517 160.666 12.3645L158.621 14.6527C157.546 13.6911 156.291 13.1166 154.854 12.9292C153.303 12.7171 152.028 13.0475 151.029 13.9229C150.068 14.7736 149.629 15.7401 149.718 16.8275C149.767 17.5524 150.06 18.1713 150.598 18.6842C151.172 19.2464 152.386 19.7272 154.235 20.1267C154.997 20.2894 155.571 20.4275 155.961 20.5384H155.963Z" fill="white"/>
<path id="Vector_9" d="M168.39 9.81738H171.445V36.6248H168.39V9.81738Z" fill="white"/>
<path id="Vector_10" d="M189.349 9.81738C193.048 9.81738 196.211 11.1242 198.835 13.7354C201.446 16.359 202.753 19.5225 202.753 23.2211C202.753 26.9197 201.446 30.0758 198.835 32.687C196.211 35.3106 193.048 36.6248 189.349 36.6248C185.651 36.6248 182.495 35.313 179.883 32.687C177.26 30.0758 175.946 26.9197 175.946 23.2211C175.946 19.5225 177.257 16.359 179.883 13.7354C182.509 11.1119 185.651 9.81738 189.349 9.81738ZM189.349 33.5673C192.2 33.5673 194.636 32.5539 196.66 30.5295C198.685 28.5052 199.698 26.069 199.698 23.2186C199.698 20.3682 198.685 17.9321 196.66 15.9077C194.636 13.8834 192.2 12.87 189.349 12.87C186.499 12.87 184.063 13.8834 182.038 15.9077C180.014 17.9321 179.001 20.3682 179.001 23.2186C179.001 26.069 180.014 28.5052 182.038 30.5295C184.063 32.5539 186.499 33.5673 189.349 33.5673Z" fill="white"/>
<path id="Vector_11" d="M226.411 9.81738V36.6248H225.304L210.307 17.3354V36.6248H207.252V9.81738H208.34L223.336 29.0895V9.81738H226.411Z" fill="white"/>
</g>
<g id="Group_2">
<path id="Vector_12" d="M117.972 48.5162C118.469 48.6615 118.836 48.8832 119.073 49.1891C119.305 49.495 119.379 49.8468 119.292 50.2445C119.208 50.6422 118.981 50.9557 118.614 51.1877C118.323 51.3687 118.007 51.4579 117.661 51.4579C117.612 51.4579 117.564 51.4579 117.513 51.4503C116.878 51.3967 116.376 51.1112 116.009 50.5886C116.113 50.479 116.246 50.3363 116.404 50.1629C116.521 50.3669 116.682 50.5326 116.891 50.6626C117.1 50.7926 117.324 50.8691 117.564 50.8895C117.826 50.9124 118.071 50.8563 118.298 50.7212C118.545 50.5785 118.696 50.3796 118.749 50.1247C118.805 49.8621 118.744 49.6378 118.568 49.4517C118.4 49.2784 118.148 49.1433 117.816 49.0515C117.76 49.0336 117.666 49.0107 117.538 48.9827C117.1 48.8883 116.789 48.7532 116.605 48.5773C116.404 48.3862 116.294 48.1516 116.274 47.8738C116.243 47.4888 116.386 47.16 116.702 46.8821C117.003 46.617 117.375 46.5099 117.814 46.5609C118.204 46.6068 118.545 46.7598 118.836 47.0172L118.461 47.4353C118.265 47.2594 118.035 47.1549 117.773 47.1192C117.49 47.081 117.255 47.1421 117.074 47.3002C116.898 47.4557 116.819 47.6316 116.835 47.8304C116.845 47.963 116.898 48.0751 116.995 48.1695C117.1 48.2714 117.322 48.3607 117.661 48.4346C117.801 48.4652 117.905 48.4907 117.977 48.5111L117.972 48.5162Z" fill="#E7AE3D"/>
<path id="Vector_13" d="M131.361 46.5559V51.458H130.802V47.8815L128.842 50.2114L126.877 47.8815V51.458H126.318V46.5559H126.494L128.842 49.3422L131.187 46.5559H131.363H131.361Z" fill="#E7AE3D"/>
<path id="Vector_14" d="M140.757 46.5559L143.031 51.458H142.414L141.7 49.9157H139.589L138.876 51.458H138.259L140.533 46.5559H140.76H140.757ZM139.847 49.3549H141.438L140.642 47.6419L139.847 49.3549Z" fill="#E7AE3D"/>
<path id="Vector_15" d="M153.214 48.4448C153.214 48.8118 153.115 49.1509 152.919 49.4593C152.728 49.7601 152.47 49.9896 152.151 50.1451L153.074 51.4579H152.391L151.588 50.321C151.499 50.3312 151.41 50.3388 151.323 50.3388H150.479V51.4605H149.921V46.5583H151.323C151.843 46.5583 152.289 46.7445 152.659 47.1141C153.026 47.4812 153.212 47.9273 153.212 48.4473L153.214 48.4448ZM151.326 49.778C151.69 49.778 152.004 49.648 152.264 49.388C152.524 49.128 152.654 48.8144 152.654 48.4448C152.654 48.0751 152.524 47.7667 152.264 47.5067C152.004 47.2466 151.69 47.1166 151.326 47.1166H150.482V49.7805H151.326V49.778Z" fill="#E7AE3D"/>
<path id="Vector_16" d="M163.409 46.5559V47.1142H161.905V51.458H161.342V47.1142H159.838V46.5559H163.409Z" fill="#E7AE3D"/>
<path id="Vector_17" d="M181.86 46.5559V51.458H181.296V49.9157H178.913V51.458H178.354V46.5559H178.913V49.3575H181.296V46.5559H181.86Z" fill="#E7AE3D"/>
<path id="Vector_18" d="M191.208 46.5559C191.883 46.5559 192.462 46.7955 192.941 47.2722C193.418 47.7515 193.658 48.3301 193.658 49.0057C193.658 49.6812 193.418 50.2599 192.941 50.7366C192.465 51.2133 191.883 51.4555 191.208 51.4555C190.532 51.4555 189.954 51.2158 189.477 50.7366C188.998 50.2599 188.758 49.6812 188.758 49.0057C188.758 48.3301 188.998 47.7515 189.477 47.2722C189.956 46.793 190.532 46.5559 191.208 46.5559ZM191.208 50.8997C191.728 50.8997 192.174 50.7136 192.546 50.344C192.918 49.9744 193.102 49.5283 193.102 49.0082C193.102 48.4882 192.916 48.0421 192.546 47.6699C192.176 47.3003 191.73 47.1142 191.208 47.1142C190.685 47.1142 190.242 47.3003 189.869 47.6699C189.497 48.0395 189.314 48.4857 189.314 49.0082C189.314 49.5308 189.5 49.9744 189.869 50.344C190.239 50.7136 190.685 50.8997 191.208 50.8997Z" fill="#E7AE3D"/>
<path id="Vector_19" d="M205.598 46.5559V51.458H205.04V47.8815L203.079 50.2114L201.114 47.8815V51.458H200.556V46.5559H200.732L203.079 49.3422L205.425 46.5559H205.601H205.598Z" fill="#E7AE3D"/>
<path id="Vector_20" d="M215.857 46.5558V47.114H213.052V49.3548H214.314V49.9131H213.052V50.8971H215.997V51.4553H212.494V46.5532H215.857V46.5558Z" fill="#E7AE3D"/>
<path id="Vector_21" d="M224.857 48.5162C225.357 48.6615 225.722 48.8832 225.959 49.1891C226.191 49.495 226.265 49.8468 226.178 50.2445C226.094 50.6422 225.867 50.9557 225.5 51.1877C225.209 51.3687 224.891 51.4579 224.546 51.4579C224.498 51.4579 224.45 51.4579 224.399 51.4503C223.764 51.3967 223.262 51.1112 222.895 50.5886C222.999 50.479 223.132 50.3363 223.29 50.1629C223.407 50.3669 223.568 50.5326 223.777 50.6626C223.986 50.7926 224.207 50.8691 224.45 50.8895C224.712 50.9124 224.957 50.8563 225.184 50.7212C225.431 50.5785 225.581 50.3796 225.637 50.1247C225.691 49.8621 225.632 49.6378 225.456 49.4517C225.288 49.2784 225.036 49.1433 224.704 49.0515C224.648 49.0336 224.554 49.0107 224.427 48.9827C223.988 48.8883 223.677 48.7532 223.494 48.5773C223.292 48.3862 223.183 48.1516 223.162 47.8738C223.132 47.4888 223.274 47.16 223.59 46.8821C223.891 46.617 224.263 46.5099 224.702 46.5609C225.092 46.6068 225.434 46.7598 225.724 47.0172L225.349 47.4353C225.153 47.2594 224.924 47.1549 224.661 47.1192C224.378 47.081 224.144 47.1421 223.963 47.3002C223.787 47.4557 223.708 47.6316 223.723 47.8304C223.733 47.963 223.787 48.0751 223.884 48.1695C223.988 48.2714 224.21 48.3607 224.549 48.4346C224.689 48.4652 224.794 48.4907 224.865 48.5111L224.857 48.5162Z" fill="#E7AE3D"/>
</g>
<path id="Vector_22" d="M5.13843 29.514L54.7637 0.817871L104.823 29.514L54.9807 5.44851L5.13843 29.514Z" fill="#BD8C2B"/>
<path id="Vector_23" d="M104.823 34.8499L55.1952 63.5485L5.13843 34.8499L54.9807 58.9179L104.823 34.8499Z" fill="#565656"/>
<path id="Vector_24" d="M23.8064 35.9002C23.8064 35.9002 56.2579 -0.274513 96.1435 34.2013C96.1435 34.2013 62.9795 -7.69635 14.5673 35.9002H23.8064Z" fill="#565656"/>
<path id="Vector_25" d="M5.13843 29.514L59.2538 3.38963L54.7637 0.817871L5.13843 29.514Z" fill="#E7AE3D"/>
<path id="Vector_26" d="M104.823 34.8499L55.195 63.5485L50.7443 60.9965L104.823 34.8499Z" fill="#8E8E8E"/>
<path id="Vector_27" d="M19.0381 35.9001C19.0381 35.9001 56.6873 -2.24724 96.1439 34.2012C96.1439 34.2012 58.6821 1.1037 23.8068 35.9001H19.0381Z" fill="#8E8E8E"/>
</g>
</svg>
