<svg xmlns="http://www.w3.org/2000/svg" id="Layer_1" data-name="Layer 1" viewBox="80.89 419.58 897.39 254.41">
  <defs>
    <style>
      .cls-1 {
        fill: #FFFFFF;
      }

      .cls-2 {
        fill: none;
      }

      .cls-3 {
        fill: #FFFFFF;
      }

      .cls-4 {
        fill: #FFFFFF;
      }

      .cls-5 {
        fill: #FFFFFF;
      }
    </style>
  </defs>
  <circle class="cls-1" cx="305.51" cy="561.86" r="55.65"/>
  <polygon class="cls-4" points="131.34 583.01 147.24 593.61 147.24 501.09 131.34 509.21 131.34 583.01"/>
  <polygon class="cls-3" points="455.15 520.9 439.87 512.42 439.87 477.88 455.15 484.41 455.15 520.9"/>
  <polygon class="cls-1" points="434.72 583.43 418.81 592.69 418.81 501.24 434.72 509.78 434.72 583.43"/>
  <path class="cls-4" d="M356.48,539.72c16.38,36.03-8.33,80.01-48.6,83.8-57.39,5.45-88.9-65.82-46.07-104.59,30.01-27.17,79.17-15.64,94.68,20.78h0ZM356.48,539.72c-11.29-26.71-45.18-38.01-69.86-23.2-34.44,19.9-32.24,70.93,3.36,87.77,41.28,19.72,84.93-21.95,66.51-64.57h0Z"/>
  <polygon class="cls-2" points="80.89 535.96 485.17 535.96 282.15 419.58 80.89 535.96"/>
  <polygon class="cls-2" points="491.8 550.71 78.22 550.71 283.23 672.3 491.8 550.71"/>
  <g>
    <path class="cls-5" d="M600.12,456.08l-50.41,108.72h-5.02l-50.41-108.72h13.69l39.23,84.62,39.23-84.62h13.69Z"/>
    <path class="cls-5" d="M618.37,456.08h12.39v108.72h-12.39v-108.72Z"/>
    <path class="cls-5" d="M692.57,499.56c11.05,3.19,19.18,8.16,24.4,14.9,5.17,6.79,6.79,14.6,4.87,23.42-1.88,8.82-6.89,15.79-15.05,20.91-6.44,4-13.48,6.01-21.14,6.01-1.06,0-2.16-.05-3.27-.15-14.09-1.17-25.22-7.53-33.38-19.08,2.33-2.43,5.25-5.57,8.74-9.43,2.58,4.51,6.18,8.21,10.8,11.1,4.61,2.89,9.58,4.56,14.9,5.02,5.83.51,11.25-.73,16.27-3.73,5.47-3.19,8.82-7.6,10.04-13.23,1.22-5.83-.13-10.8-4.03-14.9-3.75-3.85-9.3-6.82-16.65-8.9-1.27-.4-3.32-.91-6.16-1.52-9.73-2.08-16.62-5.07-20.68-8.97-4.46-4.26-6.92-9.45-7.38-15.59-.66-8.52,2.51-15.84,9.5-21.97,6.69-5.88,14.9-8.26,24.63-7.15,8.67,1.01,16.22,4.38,22.66,10.11l-8.29,9.28c-4.36-3.9-9.45-6.23-15.28-6.99-6.29-.86-11.46.48-15.51,4.03-3.9,3.45-5.68,7.37-5.32,11.78.2,2.94,1.39,5.45,3.57,7.53,2.33,2.28,7.25,4.23,14.75,5.85,3.09.66,5.42,1.22,7,1.67Z"/>
    <path class="cls-5" d="M742.97,456.08h12.39v108.72h-12.39v-108.72Z"/>
    <path class="cls-5" d="M827.97,456.08c15,0,27.83,5.3,38.47,15.89,10.59,10.64,15.89,23.47,15.89,38.47s-5.3,27.8-15.89,38.39c-10.64,10.64-23.47,15.97-38.47,15.97s-27.8-5.32-38.39-15.97c-10.64-10.59-15.97-23.39-15.97-38.39s5.32-27.83,15.97-38.47,23.39-15.89,38.39-15.89ZM827.97,552.4c11.56,0,21.44-4.11,29.65-12.32,8.21-8.21,12.32-18.09,12.32-29.65s-4.11-21.44-12.32-29.65c-8.21-8.21-18.09-12.32-29.65-12.32s-21.44,4.11-29.65,12.32-12.32,18.09-12.32,29.65,4.11,21.44,12.32,29.65c8.21,8.21,18.09,12.32,29.65,12.32Z"/>
    <path class="cls-5" d="M978.28,456.08v108.72h-4.49l-60.82-78.23v78.23h-12.39v-108.72h4.41l60.82,78.16v-78.16h12.47Z"/>
  </g>
  <g>
    <path class="cls-4" d="M552.87,613.09c1.95.57,3.39,1.44,4.32,2.64.91,1.2,1.2,2.58.86,4.14-.33,1.56-1.22,2.79-2.66,3.7-1.14.71-2.38,1.06-3.74,1.06-.19,0-.38,0-.58-.03-2.49-.21-4.46-1.33-5.9-3.38.41-.43.93-.99,1.55-1.67.46.8,1.09,1.45,1.91,1.96.82.51,1.7.81,2.64.89,1.03.09,1.99-.13,2.88-.66.97-.56,1.56-1.34,1.77-2.34.22-1.03-.02-1.91-.71-2.64-.66-.68-1.65-1.21-2.95-1.57-.22-.07-.59-.16-1.09-.27-1.72-.37-2.94-.9-3.66-1.59-.79-.75-1.22-1.67-1.3-2.76-.12-1.51.44-2.8,1.68-3.89,1.18-1.04,2.64-1.46,4.36-1.26,1.53.18,2.87.78,4.01,1.79l-1.47,1.64c-.77-.69-1.67-1.1-2.7-1.24-1.11-.15-2.03.09-2.74.71-.69.61-1,1.3-.94,2.08.04.52.25.96.63,1.33.41.4,1.28.75,2.61,1.04.55.12.96.22,1.24.3Z"/>
    <path class="cls-4" d="M605.39,605.4v19.23h-2.19v-14.03l-7.69,9.14-7.71-9.14v14.03h-2.19v-19.23h.69l9.21,10.93,9.2-10.93h.69Z"/>
    <path class="cls-4" d="M642.25,605.4l8.92,19.23h-2.42l-2.8-6.05h-8.28l-2.8,6.05h-2.42l8.92-19.23h.89ZM638.68,616.38h6.24l-3.12-6.72-3.12,6.72Z"/>
    <path class="cls-4" d="M691.12,612.81c0,1.44-.39,2.77-1.16,3.98-.75,1.18-1.76,2.08-3.01,2.69l3.62,5.15h-2.68l-3.15-4.46c-.35.04-.7.07-1.04.07h-3.31v4.4h-2.19v-19.23h5.5c2.04,0,3.79.73,5.24,2.18,1.44,1.44,2.17,3.19,2.17,5.23ZM683.71,618.04c1.43,0,2.66-.51,3.68-1.53,1.02-1.02,1.53-2.25,1.53-3.7s-.51-2.66-1.53-3.68-2.25-1.53-3.68-1.53h-3.31v10.45h3.31Z"/>
    <path class="cls-4" d="M731.11,605.4v2.19h-5.9v17.04h-2.21v-17.04h-5.9v-2.19h14.01Z"/>
    <path class="cls-4" d="M803.49,605.4v19.23h-2.21v-6.05h-9.35v6.05h-2.19v-19.23h2.19v10.99h9.35v-10.99h2.21Z"/>
    <path class="cls-4" d="M840.16,605.4c2.65,0,4.92.94,6.8,2.81,1.87,1.88,2.81,4.15,2.81,6.8s-.94,4.92-2.81,6.79-4.15,2.82-6.8,2.82-4.92-.94-6.79-2.82c-1.88-1.87-2.82-4.14-2.82-6.79s.94-4.92,2.82-6.8,4.14-2.81,6.79-2.81ZM840.16,622.44c2.04,0,3.79-.73,5.25-2.18s2.18-3.2,2.18-5.24-.73-3.79-2.18-5.25c-1.45-1.45-3.2-2.18-5.25-2.18s-3.79.73-5.25,2.18-2.18,3.2-2.18,5.25.73,3.79,2.18,5.24c1.45,1.45,3.2,2.18,5.25,2.18Z"/>
    <path class="cls-4" d="M896.61,605.4v19.23h-2.19v-14.03l-7.69,9.14-7.71-9.14v14.03h-2.19v-19.23h.69l9.21,10.93,9.2-10.93h.69Z"/>
    <path class="cls-4" d="M936.85,605.4v2.19h-11v8.79h4.95v2.19h-4.95v3.86h11.55v2.19h-13.74v-19.23h13.19Z"/>
    <path class="cls-4" d="M972.16,613.09c1.96.57,3.39,1.44,4.32,2.64.91,1.2,1.2,2.58.86,4.14-.33,1.56-1.22,2.79-2.66,3.7-1.14.71-2.39,1.06-3.74,1.06-.19,0-.38,0-.58-.03-2.49-.21-4.46-1.33-5.9-3.38.41-.43.93-.99,1.55-1.67.46.8,1.09,1.45,1.91,1.96.82.51,1.69.81,2.64.89,1.03.09,1.99-.13,2.88-.66.97-.56,1.56-1.34,1.78-2.34.21-1.03-.02-1.91-.71-2.64-.66-.68-1.65-1.21-2.95-1.57-.22-.07-.59-.16-1.09-.27-1.72-.37-2.94-.9-3.66-1.59-.79-.75-1.22-1.67-1.3-2.76-.12-1.51.44-2.8,1.68-3.89,1.18-1.04,2.64-1.46,4.36-1.26,1.53.18,2.87.78,4.01,1.79l-1.47,1.64c-.77-.69-1.67-1.1-2.7-1.24-1.11-.15-2.03.09-2.74.71-.69.61-1,1.3-.94,2.08.04.52.25.96.63,1.33.41.4,1.28.75,2.61,1.04.55.12.96.22,1.24.3Z"/>
  </g>
  <polygon class="cls-4" points="80.89 535.96 282.15 419.58 485.17 535.96 283.03 438.36 80.89 535.96"/>
  <polygon class="cls-5" points="485.17 557.6 283.9 673.99 80.89 557.6 283.03 655.21 485.17 557.6"/>
  <path class="cls-5" d="M156.6,561.86s131.61-146.71,293.37-6.89c0,0-134.5-169.92-330.84,6.89h37.47Z"/>
  <polygon class="cls-1" points="80.89 535.96 300.36 430.01 282.15 419.58 80.89 535.96"/>
  <polygon class="cls-3" points="485.17 557.6 283.9 673.99 265.85 663.64 485.17 557.6"/>
  <path class="cls-3" d="M137.26,561.86s152.69-154.71,312.71-6.89c0,0-151.93-134.23-293.37,6.89h-19.34Z"/>
</svg>