<svg width="20" height="21" viewBox="0 0 20 21" fill="none" xmlns="http://www.w3.org/2000/svg">
<g id="Component 3">
<path id="Vector" d="M20.3522 -0.336333H-0.352165C-0.388655 -0.338143 -0.425135 -0.332653 -0.459485 -0.320203C-0.493825 -0.307753 -0.525345 -0.288583 -0.552205 -0.263813C-0.579065 -0.239043 -0.600715 -0.209173 -0.615895 -0.175943C-0.631075 -0.142713 -0.639485 -0.106783 -0.640625 -0.0702727V20.9601C-0.639485 20.9966 -0.631075 21.0325 -0.615895 21.0657C-0.600715 21.099 -0.579065 21.1288 -0.552205 21.1536C-0.525345 21.1784 -0.493825 21.1975 -0.459485 21.21C-0.425135 21.2224 -0.388655 21.2279 -0.352165 21.2261H20.3522C20.3886 21.2279 20.4251 21.2224 20.4595 21.21C20.4938 21.1975 20.5253 21.1784 20.5522 21.1536C20.5791 21.1288 20.6007 21.099 20.6159 21.0657C20.6311 21.0325 20.6395 20.9966 20.6406 20.9601V-0.0702727C20.6395 -0.106783 20.6311 -0.142713 20.6159 -0.175943C20.6007 -0.209173 20.5791 -0.239043 20.5522 -0.263813C20.5253 -0.288583 20.4938 -0.307753 20.4595 -0.320203C20.4251 -0.332653 20.3886 -0.338143 20.3522 -0.336333ZM20.0781 0.226167V10.0699H11.5938V0.226167H20.0781ZM11.5938 13.4917V10.6324H20.0781V13.4917H11.5938ZM20.0781 14.0542V17.0074H11.5938V14.0542H20.0781ZM-0.078125 20.6636V0.226167H5.17188V20.6636H-0.078125ZM5.73438 20.6636V0.226167H11.0312V10.0699V10.6324V13.4917V14.0542V17.0074V17.5699V20.6636H5.73438ZM11.5938 20.6636V17.5699H20.0781V20.6636H11.5938Z" fill="white"/>
<path id="Vector_2" d="M4 9.17935C3.92541 9.17935 3.85387 9.20895 3.80113 9.26175C3.74838 9.31445 3.71875 9.38595 3.71875 9.46055V11.3825C3.71875 11.4571 3.74838 11.5286 3.80113 11.5814C3.85387 11.6341 3.92541 11.6638 4 11.6638C4.07459 11.6638 4.14613 11.6341 4.19887 11.5814C4.25162 11.5286 4.28125 11.4571 4.28125 11.3825V9.46055C4.28125 9.38595 4.25162 9.31445 4.19887 9.26175C4.14613 9.20895 4.07459 9.17935 4 9.17935Z" fill="white"/>
<path id="Vector_3" d="M7 9.17935C6.92541 9.17935 6.85387 9.20895 6.80113 9.26175C6.74838 9.31445 6.71875 9.38595 6.71875 9.46055V11.3825C6.71875 11.4571 6.74838 11.5286 6.80113 11.5814C6.85387 11.6341 6.92541 11.6638 7 11.6638C7.07459 11.6638 7.14613 11.6341 7.19887 11.5814C7.25162 11.5286 7.28125 11.4571 7.28125 11.3825V9.46055C7.28125 9.38595 7.25162 9.31445 7.19887 9.26175C7.14613 9.20895 7.07459 9.17935 7 9.17935Z" fill="white"/>
</g>
</svg>
