<svg width="43" height="42" viewBox="0 0 43 42" fill="none" xmlns="http://www.w3.org/2000/svg">
<path d="M43 21L13 42L13 -1.31134e-06L43 21Z" fill="#C4996C"/>
<rect y="8" width="26" height="26" rx="13" fill="white"/>
<path d="M8.83806 27.192C7.92073 27.192 7.0994 26.968 6.37406 26.52C5.64873 26.0613 5.07806 25.4 4.66206 24.536C4.24606 23.672 4.03806 22.6267 4.03806 21.4C4.03806 20.1733 4.24606 19.128 4.66206 18.264C5.07806 17.4 5.64873 16.744 6.37406 16.296C7.0994 15.8373 7.92073 15.608 8.83806 15.608C9.76606 15.608 10.5874 15.8373 11.3021 16.296C12.0274 16.744 12.5981 17.4 13.0141 18.264C13.4301 19.128 13.6381 20.1733 13.6381 21.4C13.6381 22.6267 13.4301 23.672 13.0141 24.536C12.5981 25.4 12.0274 26.0613 11.3021 26.52C10.5874 26.968 9.76606 27.192 8.83806 27.192ZM8.83806 25C9.2754 25 9.65406 24.8773 9.97406 24.632C10.3047 24.3867 10.5607 23.9973 10.7421 23.464C10.9341 22.9307 11.0301 22.2427 11.0301 21.4C11.0301 20.5573 10.9341 19.8693 10.7421 19.336C10.5607 18.8027 10.3047 18.4133 9.97406 18.168C9.65406 17.9227 9.2754 17.8 8.83806 17.8C8.4114 17.8 8.03273 17.9227 7.70206 18.168C7.38206 18.4133 7.12606 18.8027 6.93406 19.336C6.75273 19.8693 6.66206 20.5573 6.66206 21.4C6.66206 22.2427 6.75273 22.9307 6.93406 23.464C7.12606 23.9973 7.38206 24.3867 7.70206 24.632C8.03273 24.8773 8.4114 25 8.83806 25ZM18.3732 27.192C17.5945 27.192 16.8212 27.0907 16.0532 26.888C15.2852 26.6747 14.6345 26.376 14.1012 25.992L15.1092 24.008C15.5359 24.3173 16.0319 24.5627 16.5972 24.744C17.1625 24.9253 17.7332 25.016 18.3092 25.016C18.9599 25.016 19.4719 24.888 19.8452 24.632C20.2185 24.376 20.4052 24.024 20.4052 23.576C20.4052 23.1493 20.2399 22.8133 19.9092 22.568C19.5785 22.3227 19.0452 22.2 18.3092 22.2H17.1252V20.488L20.2452 16.952L20.5332 17.88H14.6612V15.8H22.5012V17.48L19.3972 21.016L18.0852 20.264H18.8372C20.2132 20.264 21.2532 20.5733 21.9572 21.192C22.6612 21.8107 23.0132 22.6053 23.0132 23.576C23.0132 24.2053 22.8479 24.7973 22.5172 25.352C22.1865 25.896 21.6799 26.3387 20.9972 26.68C20.3145 27.0213 19.4399 27.192 18.3732 27.192Z" fill="#3B3B3B"/>
</svg>
