<svg width="43" height="42" viewBox="0 0 43 42" fill="none" xmlns="http://www.w3.org/2000/svg">
<path d="M43 21L13 42L13 -1.31134e-06L43 21Z" fill="#C4996C"/>
<rect y="8" width="26" height="26" rx="13" fill="white"/>
<path d="M7.71306 27.192C6.79573 27.192 5.9744 26.968 5.24906 26.52C4.52373 26.0613 3.95306 25.4 3.53706 24.536C3.12106 23.672 2.91306 22.6267 2.91306 21.4C2.91306 20.1733 3.12106 19.128 3.53706 18.264C3.95306 17.4 4.52373 16.744 5.24906 16.296C5.9744 15.8373 6.79573 15.608 7.71306 15.608C8.64106 15.608 9.4624 15.8373 10.1771 16.296C10.9024 16.744 11.4731 17.4 11.8891 18.264C12.3051 19.128 12.5131 20.1733 12.5131 21.4C12.5131 22.6267 12.3051 23.672 11.8891 24.536C11.4731 25.4 10.9024 26.0613 10.1771 26.52C9.4624 26.968 8.64106 27.192 7.71306 27.192ZM7.71306 25C8.1504 25 8.52906 24.8773 8.84906 24.632C9.17973 24.3867 9.43573 23.9973 9.61706 23.464C9.80906 22.9307 9.90506 22.2427 9.90506 21.4C9.90506 20.5573 9.80906 19.8693 9.61706 19.336C9.43573 18.8027 9.17973 18.4133 8.84906 18.168C8.52906 17.9227 8.1504 17.8 7.71306 17.8C7.2864 17.8 6.90773 17.9227 6.57706 18.168C6.25706 18.4133 6.00106 18.8027 5.80906 19.336C5.62773 19.8693 5.53706 20.5573 5.53706 21.4C5.53706 22.2427 5.62773 22.9307 5.80906 23.464C6.00106 23.9973 6.25706 24.3867 6.57706 24.632C6.90773 24.8773 7.2864 25 7.71306 25ZM18.4124 27.192C17.4738 27.192 16.6524 27.0533 15.9484 26.776C15.2444 26.488 14.6951 26.088 14.3004 25.576C13.9058 25.0533 13.7084 24.4453 13.7084 23.752C13.7084 23.0587 13.9004 22.472 14.2844 21.992C14.6791 21.5013 15.2284 21.1333 15.9324 20.888C16.6364 20.632 17.4631 20.504 18.4124 20.504C19.3724 20.504 20.2044 20.632 20.9084 20.888C21.6231 21.1333 22.1724 21.5013 22.5564 21.992C22.9511 22.472 23.1484 23.0587 23.1484 23.752C23.1484 24.4453 22.9511 25.0533 22.5564 25.576C22.1618 26.088 21.6071 26.488 20.8924 26.776C20.1884 27.0533 19.3618 27.192 18.4124 27.192ZM18.4124 25.288C19.0631 25.288 19.5751 25.144 19.9484 24.856C20.3324 24.568 20.5244 24.1733 20.5244 23.672C20.5244 23.1707 20.3324 22.7813 19.9484 22.504C19.5751 22.216 19.0631 22.072 18.4124 22.072C17.7724 22.072 17.2658 22.216 16.8924 22.504C16.5191 22.7813 16.3324 23.1707 16.3324 23.672C16.3324 24.1733 16.5191 24.568 16.8924 24.856C17.2658 25.144 17.7724 25.288 18.4124 25.288ZM18.4124 21.816C17.5484 21.816 16.7911 21.6987 16.1404 21.464C15.5004 21.2293 14.9991 20.888 14.6364 20.44C14.2844 19.9813 14.1084 19.4373 14.1084 18.808C14.1084 18.1467 14.2898 17.5813 14.6524 17.112C15.0151 16.632 15.5218 16.264 16.1724 16.008C16.8231 15.7413 17.5698 15.608 18.4124 15.608C19.2764 15.608 20.0284 15.7413 20.6684 16.008C21.3191 16.264 21.8258 16.632 22.1884 17.112C22.5618 17.5813 22.7484 18.1467 22.7484 18.808C22.7484 19.4373 22.5671 19.9813 22.2044 20.44C21.8524 20.888 21.3511 21.2293 20.7004 21.464C20.0498 21.6987 19.2871 21.816 18.4124 21.816ZM18.4124 20.296C18.9564 20.296 19.3831 20.1733 19.6924 19.928C20.0124 19.6827 20.1724 19.3467 20.1724 18.92C20.1724 18.472 20.0071 18.1253 19.6764 17.88C19.3564 17.6347 18.9351 17.512 18.4124 17.512C17.9004 17.512 17.4844 17.6347 17.1644 17.88C16.8444 18.1253 16.6844 18.472 16.6844 18.92C16.6844 19.3467 16.8391 19.6827 17.1484 19.928C17.4578 20.1733 17.8791 20.296 18.4124 20.296Z" fill="#3B3B3B"/>
</svg>
