<svg width="43" height="42" viewBox="0 0 43 42" fill="none" xmlns="http://www.w3.org/2000/svg">
<path d="M43 21L13 42L13 -1.31134e-06L43 21Z" fill="#C4996C"/>
<rect y="8" width="26" height="26" rx="13" fill="white"/>
<path d="M7.90056 27.192C6.98323 27.192 6.1619 26.968 5.43656 26.52C4.71123 26.0613 4.14056 25.4 3.72456 24.536C3.30856 23.672 3.10056 22.6267 3.10056 21.4C3.10056 20.1733 3.30856 19.128 3.72456 18.264C4.14056 17.4 4.71123 16.744 5.43656 16.296C6.1619 15.8373 6.98323 15.608 7.90056 15.608C8.82856 15.608 9.6499 15.8373 10.3646 16.296C11.0899 16.744 11.6606 17.4 12.0766 18.264C12.4926 19.128 12.7006 20.1733 12.7006 21.4C12.7006 22.6267 12.4926 23.672 12.0766 24.536C11.6606 25.4 11.0899 26.0613 10.3646 26.52C9.6499 26.968 8.82856 27.192 7.90056 27.192ZM7.90056 25C8.3379 25 8.71656 24.8773 9.03656 24.632C9.36723 24.3867 9.62323 23.9973 9.80456 23.464C9.99656 22.9307 10.0926 22.2427 10.0926 21.4C10.0926 20.5573 9.99656 19.8693 9.80456 19.336C9.62323 18.8027 9.36723 18.4133 9.03656 18.168C8.71656 17.9227 8.3379 17.8 7.90056 17.8C7.4739 17.8 7.09523 17.9227 6.76456 18.168C6.44456 18.4133 6.18856 18.8027 5.99656 19.336C5.81523 19.8693 5.72456 20.5573 5.72456 21.4C5.72456 22.2427 5.81523 22.9307 5.99656 23.464C6.18856 23.9973 6.44456 24.3867 6.76456 24.632C7.09523 24.8773 7.4739 25 7.90056 25ZM18.9679 27.192C17.9439 27.192 17.0533 26.9787 16.2959 26.552C15.5493 26.1253 14.9733 25.5013 14.5679 24.68C14.1626 23.8587 13.9599 22.8453 13.9599 21.64C13.9599 20.3493 14.1999 19.256 14.6799 18.36C15.1706 17.464 15.8426 16.7813 16.6959 16.312C17.5599 15.8427 18.5519 15.608 19.6719 15.608C20.2693 15.608 20.8399 15.672 21.3839 15.8C21.9279 15.928 22.3973 16.12 22.7919 16.376L21.8319 18.28C21.5226 18.0667 21.1919 17.9227 20.8399 17.848C20.4879 17.7627 20.1199 17.72 19.7359 17.72C18.7653 17.72 17.9973 18.0133 17.4319 18.6C16.8666 19.1867 16.5839 20.056 16.5839 21.208C16.5839 21.4 16.5839 21.6133 16.5839 21.848C16.5946 22.0827 16.6266 22.3173 16.6799 22.552L15.9599 21.88C16.1626 21.464 16.4239 21.1173 16.7439 20.84C17.0639 20.552 17.4426 20.3387 17.8799 20.2C18.3279 20.0507 18.8186 19.976 19.3519 19.976C20.0773 19.976 20.7279 20.12 21.3039 20.408C21.8799 20.696 22.3386 21.1013 22.6799 21.624C23.0319 22.1467 23.2079 22.76 23.2079 23.464C23.2079 24.2213 23.0159 24.8827 22.6319 25.448C22.2586 26.0027 21.7519 26.4347 21.1119 26.744C20.4826 27.0427 19.7679 27.192 18.9679 27.192ZM18.8239 25.256C19.1866 25.256 19.5066 25.192 19.7839 25.064C20.0719 24.9253 20.2959 24.728 20.4559 24.472C20.6159 24.216 20.6959 23.9227 20.6959 23.592C20.6959 23.08 20.5199 22.6747 20.1679 22.376C19.8266 22.0667 19.3679 21.912 18.7919 21.912C18.4079 21.912 18.0719 21.9867 17.7839 22.136C17.4959 22.2747 17.2666 22.472 17.0959 22.728C16.9359 22.9733 16.8559 23.2613 16.8559 23.592C16.8559 23.912 16.9359 24.2 17.0959 24.456C17.2559 24.7013 17.4799 24.8987 17.7679 25.048C18.0559 25.1867 18.4079 25.256 18.8239 25.256Z" fill="#3B3B3B"/>
</svg>
