<svg width="43" height="42" viewBox="0 0 43 42" fill="none" xmlns="http://www.w3.org/2000/svg">
<path d="M43 21L13 42L13 -1.31134e-06L43 21Z" fill="#C4996C"/>
<rect y="8" width="26" height="26" rx="13" fill="white"/>
<path d="M8.80681 27.192C7.88948 27.192 7.06815 26.968 6.34281 26.52C5.61748 26.0613 5.04681 25.4 4.63081 24.536C4.21481 23.672 4.00681 22.6267 4.00681 21.4C4.00681 20.1733 4.21481 19.128 4.63081 18.264C5.04681 17.4 5.61748 16.744 6.34281 16.296C7.06815 15.8373 7.88948 15.608 8.80681 15.608C9.73481 15.608 10.5561 15.8373 11.2708 16.296C11.9961 16.744 12.5668 17.4 12.9828 18.264C13.3988 19.128 13.6068 20.1733 13.6068 21.4C13.6068 22.6267 13.3988 23.672 12.9828 24.536C12.5668 25.4 11.9961 26.0613 11.2708 26.52C10.5561 26.968 9.73481 27.192 8.80681 27.192ZM8.80681 25C9.24415 25 9.62281 24.8773 9.94281 24.632C10.2735 24.3867 10.5295 23.9973 10.7108 23.464C10.9028 22.9307 10.9988 22.2427 10.9988 21.4C10.9988 20.5573 10.9028 19.8693 10.7108 19.336C10.5295 18.8027 10.2735 18.4133 9.94281 18.168C9.62281 17.9227 9.24415 17.8 8.80681 17.8C8.38015 17.8 8.00148 17.9227 7.67081 18.168C7.35081 18.4133 7.09481 18.8027 6.90281 19.336C6.72148 19.8693 6.63081 20.5573 6.63081 21.4C6.63081 22.2427 6.72148 22.9307 6.90281 23.464C7.09481 23.9973 7.35081 24.3867 7.67081 24.632C8.00148 24.8773 8.38015 25 8.80681 25ZM14.7077 27V25.32L19.0277 21.24C19.369 20.9307 19.6197 20.6533 19.7797 20.408C19.9397 20.1627 20.0464 19.9387 20.0997 19.736C20.1637 19.5333 20.1957 19.3467 20.1957 19.176C20.1957 18.728 20.041 18.3867 19.7317 18.152C19.433 17.9067 18.9904 17.784 18.4037 17.784C17.9344 17.784 17.497 17.8747 17.0917 18.056C16.697 18.2373 16.361 18.52 16.0837 18.904L14.1957 17.688C14.6224 17.048 15.2197 16.5413 15.9877 16.168C16.7557 15.7947 17.641 15.608 18.6437 15.608C19.4757 15.608 20.201 15.7467 20.8197 16.024C21.449 16.2907 21.9344 16.6693 22.2757 17.16C22.6277 17.6507 22.8037 18.2373 22.8037 18.92C22.8037 19.2827 22.7557 19.6453 22.6597 20.008C22.5744 20.36 22.393 20.7333 22.1157 21.128C21.849 21.5227 21.4544 21.9653 20.9317 22.456L17.3477 25.832L16.8517 24.888H23.1717V27H14.7077Z" fill="#3B3B3B"/>
</svg>
