<svg width="43" height="42" viewBox="0 0 43 42" fill="none" xmlns="http://www.w3.org/2000/svg">
<path d="M43 21L13 42L13 -1.31134e-06L43 21Z" fill="#C4996C"/>
<rect y="8" width="26" height="26" rx="13" fill="white"/>
<path d="M9.89275 27.192C8.97542 27.192 8.15408 26.968 7.42875 26.52C6.70342 26.0613 6.13275 25.4 5.71675 24.536C5.30075 23.672 5.09275 22.6267 5.09275 21.4C5.09275 20.1733 5.30075 19.128 5.71675 18.264C6.13275 17.4 6.70342 16.744 7.42875 16.296C8.15408 15.8373 8.97542 15.608 9.89275 15.608C10.8208 15.608 11.6421 15.8373 12.3568 16.296C13.0821 16.744 13.6528 17.4 14.0688 18.264C14.4848 19.128 14.6928 20.1733 14.6928 21.4C14.6928 22.6267 14.4848 23.672 14.0688 24.536C13.6528 25.4 13.0821 26.0613 12.3568 26.52C11.6421 26.968 10.8208 27.192 9.89275 27.192ZM9.89275 25C10.3301 25 10.7088 24.8773 11.0288 24.632C11.3594 24.3867 11.6154 23.9973 11.7968 23.464C11.9888 22.9307 12.0848 22.2427 12.0848 21.4C12.0848 20.5573 11.9888 19.8693 11.7968 19.336C11.6154 18.8027 11.3594 18.4133 11.0288 18.168C10.7088 17.9227 10.3301 17.8 9.89275 17.8C9.46608 17.8 9.08742 17.9227 8.75675 18.168C8.43675 18.4133 8.18075 18.8027 7.98875 19.336C7.80742 19.8693 7.71675 20.5573 7.71675 21.4C7.71675 22.2427 7.80742 22.9307 7.98875 23.464C8.18075 23.9973 8.43675 24.3867 8.75675 24.632C9.08742 24.8773 9.46608 25 9.89275 25ZM17.6176 27V16.76L18.7376 17.88H15.3776V15.8H20.2096V27H17.6176Z" fill="#3B3B3B"/>
</svg>
