<svg width="43" height="42" viewBox="0 0 43 42" fill="none" xmlns="http://www.w3.org/2000/svg">
<path d="M43 21L13 42L13 -1.31134e-06L43 21Z" fill="#C4996C"/>
<rect y="8" width="26" height="26" rx="13" fill="white"/>
<path d="M8.55681 27.192C7.63948 27.192 6.81815 26.968 6.09281 26.52C5.36748 26.0613 4.79681 25.4 4.38081 24.536C3.96481 23.672 3.75681 22.6267 3.75681 21.4C3.75681 20.1733 3.96481 19.128 4.38081 18.264C4.79681 17.4 5.36748 16.744 6.09281 16.296C6.81815 15.8373 7.63948 15.608 8.55681 15.608C9.48481 15.608 10.3061 15.8373 11.0208 16.296C11.7461 16.744 12.3168 17.4 12.7328 18.264C13.1488 19.128 13.3568 20.1733 13.3568 21.4C13.3568 22.6267 13.1488 23.672 12.7328 24.536C12.3168 25.4 11.7461 26.0613 11.0208 26.52C10.3061 26.968 9.48481 27.192 8.55681 27.192ZM8.55681 25C8.99415 25 9.37281 24.8773 9.69281 24.632C10.0235 24.3867 10.2795 23.9973 10.4608 23.464C10.6528 22.9307 10.7488 22.2427 10.7488 21.4C10.7488 20.5573 10.6528 19.8693 10.4608 19.336C10.2795 18.8027 10.0235 18.4133 9.69281 18.168C9.37281 17.9227 8.99415 17.8 8.55681 17.8C8.13015 17.8 7.75148 17.9227 7.42081 18.168C7.10081 18.4133 6.84481 18.8027 6.65281 19.336C6.47148 19.8693 6.38081 20.5573 6.38081 21.4C6.38081 22.2427 6.47148 22.9307 6.65281 23.464C6.84481 23.9973 7.10081 24.3867 7.42081 24.632C7.75148 24.8773 8.13015 25 8.55681 25ZM16.3613 27L20.8733 16.792L21.5453 17.912H15.5133L16.6653 16.696V19.736H14.3613V15.8H23.3373V17.48L19.1773 27H16.3613Z" fill="#3B3B3B"/>
</svg>
