<svg width="43" height="42" viewBox="0 0 43 42" fill="none" xmlns="http://www.w3.org/2000/svg">
<path d="M43 21L13 42L13 -1.31134e-06L43 21Z" fill="#C4996C"/>
<rect y="8" width="26" height="26" rx="13" fill="white"/>
<path d="M7.47869 27.192C6.56135 27.192 5.74002 26.968 5.01469 26.52C4.28935 26.0613 3.71869 25.4 3.30269 24.536C2.88669 23.672 2.67869 22.6267 2.67869 21.4C2.67869 20.1733 2.88669 19.128 3.30269 18.264C3.71869 17.4 4.28935 16.744 5.01469 16.296C5.74002 15.8373 6.56135 15.608 7.47869 15.608C8.40669 15.608 9.22802 15.8373 9.94269 16.296C10.668 16.744 11.2387 17.4 11.6547 18.264C12.0707 19.128 12.2787 20.1733 12.2787 21.4C12.2787 22.6267 12.0707 23.672 11.6547 24.536C11.2387 25.4 10.668 26.0613 9.94269 26.52C9.22802 26.968 8.40669 27.192 7.47869 27.192ZM7.47869 25C7.91602 25 8.29469 24.8773 8.61469 24.632C8.94535 24.3867 9.20135 23.9973 9.38269 23.464C9.57469 22.9307 9.67069 22.2427 9.67069 21.4C9.67069 20.5573 9.57469 19.8693 9.38269 19.336C9.20135 18.8027 8.94535 18.4133 8.61469 18.168C8.29469 17.9227 7.91602 17.8 7.47869 17.8C7.05202 17.8 6.67335 17.9227 6.34269 18.168C6.02269 18.4133 5.76669 18.8027 5.57469 19.336C5.39335 19.8693 5.30269 20.5573 5.30269 21.4C5.30269 22.2427 5.39335 22.9307 5.57469 23.464C5.76669 23.9973 6.02269 24.3867 6.34269 24.632C6.67335 24.8773 7.05202 25 7.47869 25ZM13.4101 24.648V22.904L18.6901 15.8H21.4101L16.2421 22.904L14.9781 22.536H23.7941V24.648H13.4101ZM19.4421 27V24.648L19.5221 22.536V20.44H21.9701V27H19.4421Z" fill="#3B3B3B"/>
</svg>
