<svg width="43" height="42" viewBox="0 0 43 42" fill="none" xmlns="http://www.w3.org/2000/svg">
<path d="M43 21L13 42L13 -1.31134e-06L43 21Z" fill="#C4996C"/>
<rect y="8" width="26" height="26" rx="13" fill="white"/>
<path d="M8.7365 27.192C7.81917 27.192 6.99783 26.968 6.2725 26.52C5.54717 26.0613 4.9765 25.4 4.5605 24.536C4.1445 23.672 3.9365 22.6267 3.9365 21.4C3.9365 20.1733 4.1445 19.128 4.5605 18.264C4.9765 17.4 5.54717 16.744 6.2725 16.296C6.99783 15.8373 7.81917 15.608 8.7365 15.608C9.6645 15.608 10.4858 15.8373 11.2005 16.296C11.9258 16.744 12.4965 17.4 12.9125 18.264C13.3285 19.128 13.5365 20.1733 13.5365 21.4C13.5365 22.6267 13.3285 23.672 12.9125 24.536C12.4965 25.4 11.9258 26.0613 11.2005 26.52C10.4858 26.968 9.6645 27.192 8.7365 27.192ZM8.7365 25C9.17383 25 9.5525 24.8773 9.8725 24.632C10.2032 24.3867 10.4592 23.9973 10.6405 23.464C10.8325 22.9307 10.9285 22.2427 10.9285 21.4C10.9285 20.5573 10.8325 19.8693 10.6405 19.336C10.4592 18.8027 10.2032 18.4133 9.8725 18.168C9.5525 17.9227 9.17383 17.8 8.7365 17.8C8.30983 17.8 7.93117 17.9227 7.6005 18.168C7.2805 18.4133 7.0245 18.8027 6.8325 19.336C6.65117 19.8693 6.5605 20.5573 6.5605 21.4C6.5605 22.2427 6.65117 22.9307 6.8325 23.464C7.0245 23.9973 7.2805 24.3867 7.6005 24.632C7.93117 24.8773 8.30983 25 8.7365 25ZM18.6039 27.192C17.8252 27.192 17.0519 27.0907 16.2839 26.888C15.5265 26.6747 14.8759 26.376 14.3319 25.992L15.3559 24.008C15.7825 24.3173 16.2732 24.5627 16.8279 24.744C17.3932 24.9253 17.9639 25.016 18.5399 25.016C19.1905 25.016 19.7025 24.888 20.0759 24.632C20.4492 24.376 20.6359 24.0187 20.6359 23.56C20.6359 23.272 20.5612 23.016 20.4119 22.792C20.2625 22.568 19.9959 22.3973 19.6119 22.28C19.2385 22.1627 18.7105 22.104 18.0279 22.104H15.1639L15.7399 15.8H22.5719V17.88H16.6679L18.0119 16.696L17.6119 21.192L16.2679 20.008H18.6359C19.7452 20.008 20.6359 20.1627 21.3079 20.472C21.9905 20.7707 22.4865 21.1813 22.7959 21.704C23.1052 22.2267 23.2599 22.8187 23.2599 23.48C23.2599 24.1413 23.0945 24.7547 22.7639 25.32C22.4332 25.8747 21.9212 26.328 21.2279 26.68C20.5452 27.0213 19.6705 27.192 18.6039 27.192Z" fill="#3B3B3B"/>
</svg>
